<svg xmlns="http://www.w3.org/2000/svg" version="1.1" width="37.227272727272734" height="36" style="shape-rendering:geometricPrecision; text-rendering:geometricPrecision; image-rendering:optimizeQuality; fill-rule:evenodd; clip-rule:evenodd" xmlns:xlink="http://www.w3.org/1999/xlink">
<g><path style="opacity:1" fill="#050505" d="M 121.5,-0.5 C 132.833,-0.5 144.167,-0.5 155.5,-0.5C 155.5,1.83333 155.5,4.16667 155.5,6.5C 157.833,6.5 160.167,6.5 162.5,6.5C 162.5,8.5 162.5,10.5 162.5,12.5C 164.5,12.5 166.5,12.5 168.5,12.5C 168.5,21.8333 168.5,31.1667 168.5,40.5C 166.5,40.5 164.5,40.5 162.5,40.5C 162.5,44.1667 162.5,47.8333 162.5,51.5C 164.5,51.5 166.5,51.5 168.5,51.5C 168.5,56.5 168.5,61.5 168.5,66.5C 166.5,66.5 164.5,66.5 162.5,66.5C 162.5,70.1667 162.5,73.8333 162.5,77.5C 161.517,73.7016 161.183,69.7016 161.5,65.5C 169.5,65.1667 169.5,64.8333 161.5,64.5C 161.5,60.1667 161.5,55.8333 161.5,51.5C 159.5,51.5 157.5,51.5 155.5,51.5C 155.828,40.6536 155.494,29.9869 154.5,19.5C 152.167,19.5 149.833,19.5 147.5,19.5C 147.5,23.8333 147.5,28.1667 147.5,32.5C 145.833,32.5 144.167,32.5 142.5,32.5C 142.5,30.5 142.5,28.5 142.5,26.5C 140.167,26.5 137.833,26.5 135.5,26.5C 135.5,24.1667 135.5,21.8333 135.5,19.5C 133.167,19.5 130.833,19.5 128.5,19.5C 128.5,21.8333 128.5,24.1667 128.5,26.5C 126.5,26.5 124.5,26.5 122.5,26.5C 122.5,28.5 122.5,30.5 122.5,32.5C 120.167,32.5 117.833,32.5 115.5,32.5C 115.5,34.5 115.5,36.5 115.5,38.5C 113.5,38.5 111.5,38.5 109.5,38.5C 109.5,45.1667 109.5,51.8333 109.5,58.5C 105.167,58.5 100.833,58.5 96.5,58.5C 96.5,54.1667 96.5,49.8333 96.5,45.5C 94.5,45.5 92.5,45.5 90.5,45.5C 89.5386,47.2646 89.2053,49.2646 89.5,51.5C 87.8333,51.5 86.1667,51.5 84.5,51.5C 84.5,47.5 84.5,43.5 84.5,39.5C 87.0412,39.8514 88.7079,39.5181 89.5,38.5C 88.3046,34.2133 88.3046,29.88 89.5,25.5C 91.5,25.5 93.5,25.5 95.5,25.5C 95.5,23.5 95.5,21.5 95.5,19.5C 97.5,19.5 99.5,19.5 101.5,19.5C 101.244,17.2075 101.577,15.0408 102.5,13C 106.486,12.5012 110.486,12.3345 114.5,12.5C 114.5,10.5 114.5,8.5 114.5,6.5C 116.833,6.5 119.167,6.5 121.5,6.5C 121.5,4.16667 121.5,1.83333 121.5,-0.5 Z"></path></g>
<g><path style="opacity:1" fill="#b2978c" d="M 154.5,19.5 C 154.5,30.1667 154.5,40.8333 154.5,51.5C 153.506,41.3468 153.172,31.0135 153.5,20.5C 152.167,20.5 150.833,20.5 149.5,20.5C 149.797,24.7675 149.464,28.9341 148.5,33C 139.859,32.7478 131.192,32.5811 122.5,32.5C 122.5,30.5 122.5,28.5 122.5,26.5C 124.5,26.5 126.5,26.5 128.5,26.5C 128.5,24.1667 128.5,21.8333 128.5,19.5C 130.833,19.5 133.167,19.5 135.5,19.5C 135.5,21.8333 135.5,24.1667 135.5,26.5C 137.833,26.5 140.167,26.5 142.5,26.5C 142.5,28.5 142.5,30.5 142.5,32.5C 144.167,32.5 145.833,32.5 147.5,32.5C 147.5,28.1667 147.5,23.8333 147.5,19.5C 149.833,19.5 152.167,19.5 154.5,19.5 Z"></path></g>
<g><path style="opacity:1" fill="#d7b5a9" d="M 154.5,51.5 C 156.265,52.4614 158.265,52.7947 160.5,52.5C 160.5,56.5 160.5,60.5 160.5,64.5C 158.5,64.5 156.5,64.5 154.5,64.5C 154.5,66.8333 154.5,69.1667 154.5,71.5C 152.5,71.5 150.5,71.5 148.5,71.5C 147.539,73.2646 147.205,75.2646 147.5,77.5C 145.833,77.5 144.167,77.5 142.5,77.5C 142.795,75.2646 142.461,73.2646 141.5,71.5C 139.5,71.5 137.5,71.5 135.5,71.5C 134.539,73.2646 134.205,75.2646 134.5,77.5C 124.167,77.5 113.833,77.5 103.5,77.5C 103.817,73.2984 103.483,69.2984 102.5,65.5C 100.5,65.5 98.5,65.5 96.5,65.5C 96.5,67.5 96.5,69.5 96.5,71.5C 94.5,71.5 92.5,71.5 90.5,71.5C 90.5,69.1667 90.5,66.8333 90.5,64.5C 88.5,64.5 86.5,64.5 84.5,64.5C 84.5,60.5 84.5,56.5 84.5,52.5C 86.5,52.5 88.5,52.5 90.5,52.5C 90.5,50.1667 90.5,47.8333 90.5,45.5C 92.5,45.5 94.5,45.5 96.5,45.5C 96.5,49.8333 96.5,54.1667 96.5,58.5C 100.833,58.5 105.167,58.5 109.5,58.5C 111.5,58.5 113.5,58.5 115.5,58.5C 115.379,50.1422 115.712,41.8088 116.5,33.5C 118.735,33.7947 120.735,33.4614 122.5,32.5C 131.192,32.5811 139.859,32.7478 148.5,33C 149.464,28.9341 149.797,24.7675 149.5,20.5C 150.833,20.5 152.167,20.5 153.5,20.5C 153.172,31.0135 153.506,41.3468 154.5,51.5 Z"></path></g>
<g><path style="opacity:1" fill="#63524f" d="M 128.5,38.5 C 130.833,38.5 133.167,38.5 135.5,38.5C 135.5,43.1667 135.5,47.8333 135.5,52.5C 133.167,52.5 130.833,52.5 128.5,52.5C 128.5,47.8333 128.5,43.1667 128.5,38.5 Z"></path></g>
<g><path style="opacity:1" fill="#020103" d="M 129.5,39.5 C 131.167,39.5 132.833,39.5 134.5,39.5C 134.5,43.5 134.5,47.5 134.5,51.5C 132.833,51.5 131.167,51.5 129.5,51.5C 129.5,47.5 129.5,43.5 129.5,39.5 Z"></path></g>
<g><path style="opacity:1" fill="#b4998f" d="M 122.5,32.5 C 120.735,33.4614 118.735,33.7947 116.5,33.5C 115.712,41.8088 115.379,50.1422 115.5,58.5C 113.5,58.5 111.5,58.5 109.5,58.5C 109.5,51.8333 109.5,45.1667 109.5,38.5C 111.5,38.5 113.5,38.5 115.5,38.5C 115.5,36.5 115.5,34.5 115.5,32.5C 117.833,32.5 120.167,32.5 122.5,32.5 Z"></path></g>
<g><path style="opacity:1" fill="#5d4f4a" d="M 141.5,38.5 C 143.833,38.5 146.167,38.5 148.5,38.5C 148.5,43.1667 148.5,47.8333 148.5,52.5C 146.167,52.5 143.833,52.5 141.5,52.5C 141.5,47.8333 141.5,43.1667 141.5,38.5 Z"></path></g>
<g><path style="opacity:1" fill="#020102" d="M 142.5,39.5 C 144.167,39.5 145.833,39.5 147.5,39.5C 147.5,43.5 147.5,47.5 147.5,51.5C 145.833,51.5 144.167,51.5 142.5,51.5C 142.5,47.5 142.5,43.5 142.5,39.5 Z"></path></g>
<g><path style="opacity:1" fill="#222020" d="M 89.5,38.5 C 88.7079,39.5181 87.0412,39.8514 84.5,39.5C 84.5,43.5 84.5,47.5 84.5,51.5C 86.1667,51.5 87.8333,51.5 89.5,51.5C 89.2053,49.2646 89.5386,47.2646 90.5,45.5C 90.5,47.8333 90.5,50.1667 90.5,52.5C 88.5,52.5 86.5,52.5 84.5,52.5C 84.5,56.5 84.5,60.5 84.5,64.5C 86.5,64.5 88.5,64.5 90.5,64.5C 90.5,66.8333 90.5,69.1667 90.5,71.5C 89.5386,69.7354 89.2053,67.7354 89.5,65.5C 85.5,65.5 81.5,65.5 77.5,65.5C 77.5,60.8333 77.5,56.1667 77.5,51.5C 79.1667,51.5 80.8333,51.5 82.5,51.5C 82.5,47.1667 82.5,42.8333 82.5,38.5C 84.8333,38.5 87.1667,38.5 89.5,38.5 Z"></path></g>
<g><path style="opacity:1" fill="#0a0709" d="M 77.5,51.5 C 77.5,56.1667 77.5,60.8333 77.5,65.5C 81.5,65.5 85.5,65.5 89.5,65.5C 89.2053,67.7354 89.5386,69.7354 90.5,71.5C 92.5,71.5 94.5,71.5 96.5,71.5C 96.5,69.5 96.5,67.5 96.5,65.5C 98.5,65.5 100.5,65.5 102.5,65.5C 102.5,69.8333 102.5,74.1667 102.5,78.5C 113.5,78.5 124.5,78.5 135.5,78.5C 135.5,76.1667 135.5,73.8333 135.5,71.5C 137.5,71.5 139.5,71.5 141.5,71.5C 141.5,73.8333 141.5,76.1667 141.5,78.5C 143.833,78.5 146.167,78.5 148.5,78.5C 148.5,76.1667 148.5,73.8333 148.5,71.5C 150.5,71.5 152.5,71.5 154.5,71.5C 155.461,69.7354 155.795,67.7354 155.5,65.5C 157.167,65.5 158.833,65.5 160.5,65.5C 160.5,69.8333 160.5,74.1667 160.5,78.5C 164.833,78.5 169.167,78.5 173.5,78.5C 173.5,80.1667 173.5,81.8333 173.5,83.5C 171.265,83.2053 169.265,83.5386 167.5,84.5C 167.5,88.8333 167.5,93.1667 167.5,97.5C 165.5,97.5 163.5,97.5 161.5,97.5C 161.5,99.5 161.5,101.5 161.5,103.5C 162.919,104.451 164.585,104.784 166.5,104.5C 166.5,112.833 166.5,121.167 166.5,129.5C 164.833,129.5 163.167,129.5 161.5,129.5C 161.5,127.5 161.5,125.5 161.5,123.5C 161.5,121.167 161.5,118.833 161.5,116.5C 161.5,114.5 161.5,112.5 161.5,110.5C 157.167,110.5 152.833,110.5 148.5,110.5C 146.167,110.5 143.833,110.5 141.5,110.5C 141.5,112.5 141.5,114.5 141.5,116.5C 131.167,116.5 120.833,116.5 110.5,116.5C 110.167,116.5 109.833,116.5 109.5,116.5C 109.167,116.5 108.833,116.5 108.5,116.5C 110.575,111.567 108.908,109.567 103.5,110.5C 103.5,108.5 103.5,106.5 103.5,104.5C 105.5,104.5 107.5,104.5 109.5,104.5C 109.5,106.5 109.5,108.5 109.5,110.5C 118.167,110.5 126.833,110.5 135.5,110.5C 135.5,106.167 135.5,101.833 135.5,97.5C 135.5,93.1667 135.5,88.8333 135.5,84.5C 128.833,84.5 122.167,84.5 115.5,84.5C 113.5,84.5 111.5,84.5 109.5,84.5C 109.5,86.5 109.5,88.5 109.5,90.5C 107.5,90.5 105.5,90.5 103.5,90.5C 103.5,88.5 103.5,86.5 103.5,84.5C 101.167,84.5 98.8333,84.5 96.5,84.5C 96.5,86.5 96.5,88.5 96.5,90.5C 98.5,90.5 100.5,90.5 102.5,90.5C 102.5,94.8333 102.5,99.1667 102.5,103.5C 100.833,103.5 99.1667,103.5 97.5,103.5C 97.5,107.833 97.5,112.167 97.5,116.5C 97.1667,116.5 96.8333,116.5 96.5,116.5C 96.5,112.167 96.5,107.833 96.5,103.5C 96.5,101.5 96.5,99.5 96.5,97.5C 94.1667,97.5 91.8333,97.5 89.5,97.5C 89.3253,99.6208 89.6586,101.621 90.5,103.5C 89.5318,105.607 89.1984,107.941 89.5,110.5C 87.8333,110.5 86.1667,110.5 84.5,110.5C 83.5166,114.298 83.1832,118.298 83.5,122.5C 79.5,122.5 75.5,122.5 71.5,122.5C 71.5,120.833 71.5,119.167 71.5,117.5C 73.5,117.5 75.5,117.5 77.5,117.5C 77.5,113.167 77.5,108.833 77.5,104.5C 79.7354,104.795 81.7354,104.461 83.5,103.5C 84.4834,99.7016 84.8168,95.7016 84.5,91.5C 86.4147,91.7845 88.0813,91.4511 89.5,90.5C 90.4614,88.7354 90.7947,86.7354 90.5,84.5C 88.1667,84.5 85.8333,84.5 83.5,84.5C 81.5,84.5 79.5,84.5 77.5,84.5C 76.5386,86.2646 76.2053,88.2646 76.5,90.5C 74.5,90.5 72.5,90.5 70.5,90.5C 70.5,92.5 70.5,94.5 70.5,96.5C 68.5,96.5 66.5,96.5 64.5,96.5C 64.1667,96.5 63.8333,96.5 63.5,96.5C 63.5,94.5 63.5,92.5 63.5,90.5C 65.5,90.5 67.5,90.5 69.5,90.5C 68.1667,84.5 70.5,82.1667 76.5,83.5C 76.5,81.5 76.5,79.5 76.5,77.5C 80.5,77.5 84.5,77.5 88.5,77.5C 88.5,76.1667 88.5,74.8333 88.5,73.5C 86.5,73.1667 84.5,72.8333 82.5,72.5C 82.5,70.5 82.5,68.5 82.5,66.5C 80.5,66.5 78.5,66.5 76.5,66.5C 76.1795,61.3054 76.5128,56.3054 77.5,51.5 Z"></path></g>
<g><path style="opacity:1" fill="#685852" d="M 102.5,65.5 C 103.483,69.2984 103.817,73.2984 103.5,77.5C 113.833,77.5 124.167,77.5 134.5,77.5C 134.205,75.2646 134.539,73.2646 135.5,71.5C 135.5,73.8333 135.5,76.1667 135.5,78.5C 124.5,78.5 113.5,78.5 102.5,78.5C 102.5,74.1667 102.5,69.8333 102.5,65.5 Z"></path></g>
<g><path style="opacity:1" fill="#7b665f" d="M 141.5,71.5 C 142.461,73.2646 142.795,75.2646 142.5,77.5C 144.167,77.5 145.833,77.5 147.5,77.5C 147.205,75.2646 147.539,73.2646 148.5,71.5C 148.5,73.8333 148.5,76.1667 148.5,78.5C 146.167,78.5 143.833,78.5 141.5,78.5C 141.5,76.1667 141.5,73.8333 141.5,71.5 Z"></path></g>
<g><path style="opacity:0.522" fill="#393636" d="M 154.5,19.5 C 155.494,29.9869 155.828,40.6536 155.5,51.5C 157.5,51.5 159.5,51.5 161.5,51.5C 161.5,55.8333 161.5,60.1667 161.5,64.5C 169.5,64.8333 169.5,65.1667 161.5,65.5C 161.183,69.7016 161.517,73.7016 162.5,77.5C 166.5,77.5 170.5,77.5 174.5,77.5C 174.5,79.8333 174.5,82.1667 174.5,84.5C 172.167,84.5 169.833,84.5 167.5,84.5C 169.265,83.5386 171.265,83.2053 173.5,83.5C 173.5,81.8333 173.5,80.1667 173.5,78.5C 169.167,78.5 164.833,78.5 160.5,78.5C 160.5,74.1667 160.5,69.8333 160.5,65.5C 158.833,65.5 157.167,65.5 155.5,65.5C 155.795,67.7354 155.461,69.7354 154.5,71.5C 154.5,69.1667 154.5,66.8333 154.5,64.5C 156.5,64.5 158.5,64.5 160.5,64.5C 160.5,60.5 160.5,56.5 160.5,52.5C 158.265,52.7947 156.265,52.4614 154.5,51.5C 154.5,40.8333 154.5,30.1667 154.5,19.5 Z"></path></g>
<g><path style="opacity:1" fill="#e95239" d="M 77.5,84.5 C 79.5,84.5 81.5,84.5 83.5,84.5C 83.5,86.5 83.5,88.5 83.5,90.5C 81.5,90.5 79.5,90.5 77.5,90.5C 77.5,88.5 77.5,86.5 77.5,84.5 Z"></path></g>
<g><path style="opacity:1" fill="#a71015" d="M 83.5,84.5 C 85.8333,84.5 88.1667,84.5 90.5,84.5C 90.7947,86.7354 90.4614,88.7354 89.5,90.5C 87.5,90.5 85.5,90.5 83.5,90.5C 83.5,88.5 83.5,86.5 83.5,84.5 Z"></path></g>
<g><path style="opacity:1" fill="#655550" d="M 142.5,84.5 C 142.5,90.8333 142.5,97.1667 142.5,103.5C 146.5,103.5 150.5,103.5 154.5,103.5C 150.366,104.485 146.032,104.818 141.5,104.5C 141.176,97.6457 141.509,90.979 142.5,84.5 Z"></path></g>
<g><path style="opacity:1" fill="#08376c" d="M 115.5,84.5 C 116.15,86.4352 116.483,88.4352 116.5,90.5C 120.5,90.5 124.5,90.5 128.5,90.5C 128.5,92.8333 128.5,95.1667 128.5,97.5C 130.5,97.5 132.5,97.5 134.5,97.5C 134.5,99.5 134.5,101.5 134.5,103.5C 128.5,103.5 122.5,103.5 116.5,103.5C 116.5,101.5 116.5,99.5 116.5,97.5C 114.167,97.5 111.833,97.5 109.5,97.5C 109.5,95.1667 109.5,92.8333 109.5,90.5C 109.5,88.5 109.5,86.5 109.5,84.5C 111.5,84.5 113.5,84.5 115.5,84.5 Z"></path></g>
<g><path style="opacity:1" fill="#354e7d" d="M 115.5,84.5 C 122.167,84.5 128.833,84.5 135.5,84.5C 135.5,88.8333 135.5,93.1667 135.5,97.5C 135.167,97.5 134.833,97.5 134.5,97.5C 132.5,97.5 130.5,97.5 128.5,97.5C 128.5,95.1667 128.5,92.8333 128.5,90.5C 124.5,90.5 120.5,90.5 116.5,90.5C 116.483,88.4352 116.15,86.4352 115.5,84.5 Z"></path></g>
<g><path style="opacity:1" fill="#ccafa6" d="M 167.5,84.5 C 169.833,84.5 172.167,84.5 174.5,84.5C 174.5,88.8333 174.5,93.1667 174.5,97.5C 172.167,97.5 169.833,97.5 167.5,97.5C 167.5,93.1667 167.5,88.8333 167.5,84.5 Z"></path></g>
<g><path style="opacity:1" fill="#3b060a" d="M 83.5,90.5 C 85.5,90.5 87.5,90.5 89.5,90.5C 88.0813,91.4511 86.4147,91.7845 84.5,91.5C 84.8168,95.7016 84.4834,99.7016 83.5,103.5C 83.5,99.1667 83.5,94.8333 83.5,90.5 Z"></path></g>
<g><path style="opacity:1" fill="#052651" d="M 109.5,90.5 C 109.5,92.8333 109.5,95.1667 109.5,97.5C 111.833,97.5 114.167,97.5 116.5,97.5C 116.5,99.5 116.5,101.5 116.5,103.5C 122.5,103.5 128.5,103.5 134.5,103.5C 134.5,101.5 134.5,99.5 134.5,97.5C 134.833,97.5 135.167,97.5 135.5,97.5C 135.5,101.833 135.5,106.167 135.5,110.5C 126.833,110.5 118.167,110.5 109.5,110.5C 109.5,108.5 109.5,106.5 109.5,104.5C 107.5,104.5 105.5,104.5 103.5,104.5C 103.5,106.5 103.5,108.5 103.5,110.5C 108.908,109.567 110.575,111.567 108.5,116.5C 104.833,116.5 101.167,116.5 97.5,116.5C 97.5,112.167 97.5,107.833 97.5,103.5C 99.1667,103.5 100.833,103.5 102.5,103.5C 102.5,99.1667 102.5,94.8333 102.5,90.5C 100.5,90.5 98.5,90.5 96.5,90.5C 96.5,88.5 96.5,86.5 96.5,84.5C 98.8333,84.5 101.167,84.5 103.5,84.5C 103.5,86.5 103.5,88.5 103.5,90.5C 105.5,90.5 107.5,90.5 109.5,90.5 Z"></path></g>
<g><path style="opacity:1" fill="#c6a99e" d="M 142.5,84.5 C 148.833,84.5 155.167,84.5 161.5,84.5C 161.5,88.8333 161.5,93.1667 161.5,97.5C 159.167,97.5 156.833,97.5 154.5,97.5C 154.5,99.5 154.5,101.5 154.5,103.5C 150.5,103.5 146.5,103.5 142.5,103.5C 142.5,97.1667 142.5,90.8333 142.5,84.5 Z"></path></g>
<g><path style="opacity:1" fill="#ab1116" d="M 77.5,84.5 C 77.5,86.5 77.5,88.5 77.5,90.5C 79.5,90.5 81.5,90.5 83.5,90.5C 83.5,94.8333 83.5,99.1667 83.5,103.5C 81.1667,103.5 78.8333,103.5 76.5,103.5C 76.5,107.833 76.5,112.167 76.5,116.5C 74.5,116.5 72.5,116.5 70.5,116.5C 70.5,118.5 70.5,120.5 70.5,122.5C 68.2646,122.205 66.2646,122.539 64.5,123.5C 63.5166,127.298 63.1832,131.298 63.5,135.5C 61.5,135.5 59.5,135.5 57.5,135.5C 57.5,137.833 57.5,140.167 57.5,142.5C 53.5,142.5 49.5,142.5 45.5,142.5C 45.5,140.167 45.5,137.833 45.5,135.5C 34.5,135.5 23.5,135.5 12.5,135.5C 12.5,133.5 12.5,131.5 12.5,129.5C 10.1667,129.5 7.83333,129.5 5.5,129.5C 5.5,125.167 5.5,120.833 5.5,116.5C 9.83333,116.5 14.1667,116.5 18.5,116.5C 18.5,114.5 18.5,112.5 18.5,110.5C 20.8333,110.5 23.1667,110.5 25.5,110.5C 25.5,112.5 25.5,114.5 25.5,116.5C 36.1667,116.5 46.8333,116.5 57.5,116.5C 57.5,114.5 57.5,112.5 57.5,110.5C 59.5,110.5 61.5,110.5 63.5,110.5C 65.8333,110.5 68.1667,110.5 70.5,110.5C 70.5,106.167 70.5,101.833 70.5,97.5C 68.5,97.5 66.5,97.5 64.5,97.5C 64.5,97.1667 64.5,96.8333 64.5,96.5C 66.5,96.5 68.5,96.5 70.5,96.5C 70.5,94.5 70.5,92.5 70.5,90.5C 72.5,90.5 74.5,90.5 76.5,90.5C 76.2053,88.2646 76.5386,86.2646 77.5,84.5 Z"></path></g>
<g><path style="opacity:0.787" fill="#100e10" d="M 174.5,77.5 C 175.461,79.2646 175.795,81.2646 175.5,83.5C 177.5,83.5 179.5,83.5 181.5,83.5C 181.5,88.5 181.5,93.5 181.5,98.5C 179.5,98.5 177.5,98.5 175.5,98.5C 176.501,104.164 174.167,106.498 168.5,105.5C 168.831,113.86 168.498,122.193 167.5,130.5C 165.929,131.309 164.262,131.643 162.5,131.5C 162.665,135.182 162.499,138.848 162,142.5C 159.959,143.423 157.792,143.756 155.5,143.5C 155.5,145.833 155.5,148.167 155.5,150.5C 151.167,150.5 146.833,150.5 142.5,150.5C 142.5,152.5 142.5,154.5 142.5,156.5C 136.167,156.5 129.833,156.5 123.5,156.5C 123.756,158.792 123.423,160.959 122.5,163C 116.509,163.499 110.509,163.666 104.5,163.5C 105.265,168.906 102.931,170.906 97.5,169.5C 97.5,171.5 97.5,173.5 97.5,175.5C 92.5,175.5 87.5,175.5 82.5,175.5C 82.5,173.5 82.5,171.5 82.5,169.5C 80.5,169.5 78.5,169.5 76.5,169.5C 76.7394,167.533 76.4061,165.699 75.5,164C 71.5138,163.501 67.5138,163.334 63.5,163.5C 63.5,161.167 63.5,158.833 63.5,156.5C 58.0687,157.906 55.7353,155.906 56.5,150.5C 52.4862,150.666 48.4862,150.499 44.5,150C 43.5939,148.301 43.2606,146.467 43.5,144.5C 33.4944,144.666 23.4944,144.5 13.5,144C 11.75,142.246 11.0833,140.079 11.5,137.5C 6.50525,138.418 4.17191,136.418 4.5,131.5C 2.70848,131.634 1.04181,131.301 -0.5,130.5C -0.5,125.833 -0.5,121.167 -0.5,116.5C 1.16667,116.5 2.83333,116.5 4.5,116.5C 4.31845,114.409 4.65178,112.409 5.5,110.5C 9.44539,109.509 13.4454,109.176 17.5,109.5C 17.5,107.5 17.5,105.5 17.5,103.5C 26.1667,103.5 34.8333,103.5 43.5,103.5C 43.2436,101.208 43.5769,99.0408 44.5,97C 50.8246,96.5005 57.1579,96.3338 63.5,96.5C 63.8333,96.5 64.1667,96.5 64.5,96.5C 64.5,96.8333 64.5,97.1667 64.5,97.5C 64.7947,99.7354 64.4614,101.735 63.5,103.5C 57.4908,103.334 51.4908,103.501 45.5,104C 44.5769,106.041 44.2436,108.208 44.5,110.5C 38.1667,110.5 31.8333,110.5 25.5,110.5C 23.1667,110.5 20.8333,110.5 18.5,110.5C 18.5,112.5 18.5,114.5 18.5,116.5C 14.1667,116.5 9.83333,116.5 5.5,116.5C 5.5,120.833 5.5,125.167 5.5,129.5C 7.83333,129.5 10.1667,129.5 12.5,129.5C 12.5,131.5 12.5,133.5 12.5,135.5C 22.9869,136.494 33.6536,136.828 44.5,136.5C 44.2053,138.735 44.5386,140.735 45.5,142.5C 49.5,142.5 53.5,142.5 57.5,142.5C 58.4614,140.735 58.7947,138.735 58.5,136.5C 60.1667,136.5 61.8333,136.5 63.5,136.5C 63.1765,143.022 63.5098,149.355 64.5,155.5C 66.5,155.5 68.5,155.5 70.5,155.5C 72.8333,155.5 75.1667,155.5 77.5,155.5C 77.5,153.5 77.5,151.5 77.5,149.5C 79.5,149.5 81.5,149.5 83.5,149.5C 83.5,155.833 83.5,162.167 83.5,168.5C 87.8333,168.5 92.1667,168.5 96.5,168.5C 96.5,166.5 96.5,164.5 96.5,162.5C 98.6074,161.532 100.941,161.198 103.5,161.5C 103.5,159.5 103.5,157.5 103.5,155.5C 109.833,155.5 116.167,155.5 122.5,155.5C 122.5,153.5 122.5,151.5 122.5,149.5C 129.022,149.823 135.355,149.49 141.5,148.5C 142.451,147.081 142.784,145.415 142.5,143.5C 146.702,143.817 150.702,143.483 154.5,142.5C 154.5,140.5 154.5,138.5 154.5,136.5C 154.5,136.167 154.5,135.833 154.5,135.5C 154.5,133.5 154.5,131.5 154.5,129.5C 157.144,129.715 159.477,129.715 161.5,129.5C 163.167,129.5 164.833,129.5 166.5,129.5C 166.5,121.167 166.5,112.833 166.5,104.5C 164.585,104.784 162.919,104.451 161.5,103.5C 163.5,103.5 165.5,103.5 167.5,103.5C 167.5,101.5 167.5,99.5 167.5,97.5C 169.833,97.5 172.167,97.5 174.5,97.5C 174.5,93.1667 174.5,88.8333 174.5,84.5C 174.5,82.1667 174.5,79.8333 174.5,77.5 Z"></path></g>
<g><path style="opacity:1" fill="#aa1016" d="M 70.5,136.5 C 70.5,142.833 70.5,149.167 70.5,155.5C 68.5,155.5 66.5,155.5 64.5,155.5C 64.5,149.167 64.5,142.833 64.5,136.5C 66.5,136.5 68.5,136.5 70.5,136.5 Z"></path></g>
<g><path style="opacity:1" fill="#f7ec14" d="M 154.5,136.5 C 154.5,138.5 154.5,140.5 154.5,142.5C 150.167,142.5 145.833,142.5 141.5,142.5C 137.167,142.5 132.833,142.5 128.5,142.5C 128.5,140.5 128.5,138.5 128.5,136.5C 127.081,135.549 125.415,135.216 123.5,135.5C 123.5,133.833 123.5,132.167 123.5,130.5C 127.167,130.5 130.833,130.5 134.5,130.5C 134.5,132.5 134.5,134.5 134.5,136.5C 141.167,136.5 147.833,136.5 154.5,136.5 Z"></path></g>
<g><path style="opacity:1" fill="#631416" d="M 12.5,135.5 C 23.5,135.5 34.5,135.5 45.5,135.5C 45.5,137.833 45.5,140.167 45.5,142.5C 44.5386,140.735 44.2053,138.735 44.5,136.5C 33.6536,136.828 22.9869,136.494 12.5,135.5 Z"></path></g>
<g><path style="opacity:1" fill="#eee315" d="M 96.5,116.5 C 96.8333,116.5 97.1667,116.5 97.5,116.5C 101.167,116.5 104.833,116.5 108.5,116.5C 108.833,116.5 109.167,116.5 109.5,116.5C 109.5,118.833 109.5,121.167 109.5,123.5C 111.5,123.5 113.5,123.5 115.5,123.5C 116.461,125.265 116.795,127.265 116.5,129.5C 115.539,131.265 115.205,133.265 115.5,135.5C 113.833,135.5 112.167,135.5 110.5,135.5C 110.795,133.265 110.461,131.265 109.5,129.5C 107.167,129.5 104.833,129.5 102.5,129.5C 102.5,127.5 102.5,125.5 102.5,123.5C 100.5,123.5 98.5,123.5 96.5,123.5C 96.5,121.167 96.5,118.833 96.5,116.5 Z"></path></g>
<g><path style="opacity:1" fill="#112753" d="M 83.5,129.5 C 85.5,129.5 87.5,129.5 89.5,129.5C 91.8333,129.5 94.1667,129.5 96.5,129.5C 96.5,133.833 96.5,138.167 96.5,142.5C 92.5,142.5 88.5,142.5 84.5,142.5C 84.1667,142.5 83.8333,142.5 83.5,142.5C 83.5,138.167 83.5,133.833 83.5,129.5 Z"></path></g>
<g><path style="opacity:1" fill="#110306" d="M 83.5,129.5 C 83.5,133.833 83.5,138.167 83.5,142.5C 81.5,142.5 79.5,142.5 77.5,142.5C 77.5,138.167 77.5,133.833 77.5,129.5C 79.5,129.5 81.5,129.5 83.5,129.5 Z"></path></g>
<g><path style="opacity:1" fill="#b4ae3c" d="M 122.5,129.5 C 126.833,129.5 131.167,129.5 135.5,129.5C 135.5,131.5 135.5,133.5 135.5,135.5C 141.833,135.5 148.167,135.5 154.5,135.5C 154.5,135.833 154.5,136.167 154.5,136.5C 147.833,136.5 141.167,136.5 134.5,136.5C 134.5,134.5 134.5,132.5 134.5,130.5C 130.833,130.5 127.167,130.5 123.5,130.5C 123.5,132.167 123.5,133.833 123.5,135.5C 125.415,135.216 127.081,135.549 128.5,136.5C 126.5,136.5 124.5,136.5 122.5,136.5C 122.5,134.167 122.5,131.833 122.5,129.5 Z"></path></g>
<g><path style="opacity:1" fill="#ab1817" d="M 84.5,110.5 C 86.1667,110.5 87.8333,110.5 89.5,110.5C 89.8333,110.5 90.1667,110.5 90.5,110.5C 90.5,112.5 90.5,114.5 90.5,116.5C 92.1667,116.5 93.8333,116.5 95.5,116.5C 95.8333,116.5 96.1667,116.5 96.5,116.5C 96.5,118.833 96.5,121.167 96.5,123.5C 98.5,123.5 100.5,123.5 102.5,123.5C 102.5,125.5 102.5,127.5 102.5,129.5C 104.833,129.5 107.167,129.5 109.5,129.5C 109.5,131.833 109.5,134.167 109.5,136.5C 111.735,136.795 113.735,136.461 115.5,135.5C 115.205,133.265 115.539,131.265 116.5,129.5C 116.5,133.833 116.5,138.167 116.5,142.5C 118.5,142.5 120.5,142.5 122.5,142.5C 122.5,144.5 122.5,146.5 122.5,148.5C 124.5,148.5 126.5,148.5 128.5,148.5C 132.833,148.5 137.167,148.5 141.5,148.5C 135.355,149.49 129.022,149.823 122.5,149.5C 118.167,149.5 113.833,149.5 109.5,149.5C 109.5,147.167 109.5,144.833 109.5,142.5C 105.167,142.5 100.833,142.5 96.5,142.5C 96.5,138.167 96.5,133.833 96.5,129.5C 94.1667,129.5 91.8333,129.5 89.5,129.5C 89.5,127.5 89.5,125.5 89.5,123.5C 88.0813,122.549 86.4147,122.216 84.5,122.5C 84.5,118.5 84.5,114.5 84.5,110.5 Z"></path></g>
<g><path style="opacity:1" fill="#e2a82d" d="M 109.5,129.5 C 110.461,131.265 110.795,133.265 110.5,135.5C 112.167,135.5 113.833,135.5 115.5,135.5C 113.735,136.461 111.735,136.795 109.5,136.5C 109.5,134.167 109.5,131.833 109.5,129.5 Z"></path></g>
<g><path style="opacity:1" fill="#374e7b" d="M 142.5,117.5 C 144.167,117.5 145.833,117.5 147.5,117.5C 147.5,119.5 147.5,121.5 147.5,123.5C 152.167,123.5 156.833,123.5 161.5,123.5C 161.5,125.5 161.5,127.5 161.5,129.5C 159.477,129.715 157.144,129.715 154.5,129.5C 154.5,131.5 154.5,133.5 154.5,135.5C 148.167,135.5 141.833,135.5 135.5,135.5C 135.5,133.5 135.5,131.5 135.5,129.5C 137.288,129.785 138.955,129.452 140.5,128.5C 141.104,124.697 141.77,121.031 142.5,117.5 Z"></path></g>
<g><path style="opacity:1" fill="#a70f16" d="M 83.5,123.5 C 83.5,125.5 83.5,127.5 83.5,129.5C 81.5,129.5 79.5,129.5 77.5,129.5C 77.5,133.833 77.5,138.167 77.5,142.5C 76.5151,138.366 76.1818,134.032 76.5,129.5C 74.8333,129.5 73.1667,129.5 71.5,129.5C 71.5,127.5 71.5,125.5 71.5,123.5C 75.5,123.5 79.5,123.5 83.5,123.5 Z"></path></g>
<g><path style="opacity:1" fill="#130406" d="M 83.5,123.5 C 85.5,123.5 87.5,123.5 89.5,123.5C 89.5,125.5 89.5,127.5 89.5,129.5C 87.5,129.5 85.5,129.5 83.5,129.5C 83.5,127.5 83.5,125.5 83.5,123.5 Z"></path></g>
<g><path style="opacity:1" fill="#984f57" d="M 142.5,117.5 C 142.5,117.167 142.5,116.833 142.5,116.5C 144.5,116.5 146.5,116.5 148.5,116.5C 148.5,118.5 148.5,120.5 148.5,122.5C 152.5,122.5 156.5,122.5 160.5,122.5C 160.5,120.5 160.5,118.5 160.5,116.5C 160.833,116.5 161.167,116.5 161.5,116.5C 161.5,118.833 161.5,121.167 161.5,123.5C 156.833,123.5 152.167,123.5 147.5,123.5C 147.5,121.5 147.5,119.5 147.5,117.5C 145.833,117.5 144.167,117.5 142.5,117.5 Z"></path></g>
<g><path style="opacity:1" fill="#525f39" d="M 109.5,116.5 C 109.833,116.5 110.167,116.5 110.5,116.5C 110.5,118.5 110.5,120.5 110.5,122.5C 112.415,122.216 114.081,122.549 115.5,123.5C 113.5,123.5 111.5,123.5 109.5,123.5C 109.5,121.167 109.5,118.833 109.5,116.5 Z"></path></g>
<g><path style="opacity:1" fill="#620b11" d="M 83.5,103.5 C 81.7354,104.461 79.7354,104.795 77.5,104.5C 77.5,108.833 77.5,113.167 77.5,117.5C 75.5,117.5 73.5,117.5 71.5,117.5C 71.5,119.167 71.5,120.833 71.5,122.5C 75.5,122.5 79.5,122.5 83.5,122.5C 83.1832,118.298 83.5166,114.298 84.5,110.5C 84.5,114.5 84.5,118.5 84.5,122.5C 86.4147,122.216 88.0813,122.549 89.5,123.5C 87.5,123.5 85.5,123.5 83.5,123.5C 79.5,123.5 75.5,123.5 71.5,123.5C 71.5,125.5 71.5,127.5 71.5,129.5C 71.8016,132.059 71.4682,134.393 70.5,136.5C 68.5,136.5 66.5,136.5 64.5,136.5C 64.5,142.833 64.5,149.167 64.5,155.5C 63.5098,149.355 63.1765,143.022 63.5,136.5C 61.8333,136.5 60.1667,136.5 58.5,136.5C 58.7947,138.735 58.4614,140.735 57.5,142.5C 57.5,140.167 57.5,137.833 57.5,135.5C 59.5,135.5 61.5,135.5 63.5,135.5C 63.1832,131.298 63.5166,127.298 64.5,123.5C 66.2646,122.539 68.2646,122.205 70.5,122.5C 70.5,120.5 70.5,118.5 70.5,116.5C 72.5,116.5 74.5,116.5 76.5,116.5C 76.5,112.167 76.5,107.833 76.5,103.5C 78.8333,103.5 81.1667,103.5 83.5,103.5 Z"></path></g>
<g><path style="opacity:1" fill="#100202" d="M 64.5,123.5 C 66.5,123.5 68.5,123.5 70.5,123.5C 70.5,127.5 70.5,131.5 70.5,135.5C 68.5,135.5 66.5,135.5 64.5,135.5C 64.5,131.5 64.5,127.5 64.5,123.5 Z"></path></g>
<g><path style="opacity:1" fill="#0a3365" d="M 110.5,116.5 C 120.833,116.5 131.167,116.5 141.5,116.5C 141.833,116.5 142.167,116.5 142.5,116.5C 142.5,116.833 142.5,117.167 142.5,117.5C 141.77,121.031 141.104,124.697 140.5,128.5C 138.955,129.452 137.288,129.785 135.5,129.5C 131.167,129.5 126.833,129.5 122.5,129.5C 120.5,129.5 118.5,129.5 116.5,129.5C 116.795,127.265 116.461,125.265 115.5,123.5C 114.081,122.549 112.415,122.216 110.5,122.5C 110.5,120.5 110.5,118.5 110.5,116.5 Z"></path></g>
<g><path style="opacity:1" fill="#ef5a38" d="M 148.5,116.5 C 152.5,116.5 156.5,116.5 160.5,116.5C 160.5,118.5 160.5,120.5 160.5,122.5C 156.5,122.5 152.5,122.5 148.5,122.5C 148.5,120.5 148.5,118.5 148.5,116.5 Z"></path></g>
<g><path style="opacity:1" fill="#e12422" d="M 148.5,110.5 C 148.5,112.5 148.5,114.5 148.5,116.5C 146.5,116.5 144.5,116.5 142.5,116.5C 142.167,116.5 141.833,116.5 141.5,116.5C 141.5,114.5 141.5,112.5 141.5,110.5C 143.833,110.5 146.167,110.5 148.5,110.5 Z"></path></g>
<g><path style="opacity:1" fill="#f5e906" d="M 148.5,110.5 C 152.833,110.5 157.167,110.5 161.5,110.5C 161.5,112.5 161.5,114.5 161.5,116.5C 161.167,116.5 160.833,116.5 160.5,116.5C 156.5,116.5 152.5,116.5 148.5,116.5C 148.5,114.5 148.5,112.5 148.5,110.5 Z"></path></g>
<g><path style="opacity:1" fill="#faee0a" d="M 95.5,116.5 C 93.8333,116.5 92.1667,116.5 90.5,116.5C 90.5,114.5 90.5,112.5 90.5,110.5C 90.5,108.5 90.5,106.5 90.5,104.5C 92.1667,104.5 93.8333,104.5 95.5,104.5C 95.5,108.5 95.5,112.5 95.5,116.5 Z"></path></g>
<g><path style="opacity:1" fill="#e81b24" d="M 25.5,110.5 C 31.8333,110.5 38.1667,110.5 44.5,110.5C 48.8333,110.5 53.1667,110.5 57.5,110.5C 57.5,112.5 57.5,114.5 57.5,116.5C 46.8333,116.5 36.1667,116.5 25.5,116.5C 25.5,114.5 25.5,112.5 25.5,110.5 Z"></path></g>
<g><path style="opacity:1" fill="#abac25" d="M 90.5,103.5 C 92.5,103.5 94.5,103.5 96.5,103.5C 96.5,107.833 96.5,112.167 96.5,116.5C 96.1667,116.5 95.8333,116.5 95.5,116.5C 95.5,112.5 95.5,108.5 95.5,104.5C 93.8333,104.5 92.1667,104.5 90.5,104.5C 90.5,106.5 90.5,108.5 90.5,110.5C 90.1667,110.5 89.8333,110.5 89.5,110.5C 89.1984,107.941 89.5318,105.607 90.5,103.5 Z"></path></g>
<g><path style="opacity:1" fill="#e44f3a" d="M 63.5,103.5 C 63.5,105.833 63.5,108.167 63.5,110.5C 61.5,110.5 59.5,110.5 57.5,110.5C 53.1667,110.5 48.8333,110.5 44.5,110.5C 44.2436,108.208 44.5769,106.041 45.5,104C 51.4908,103.501 57.4908,103.334 63.5,103.5 Z"></path></g>
<g><path style="opacity:1" fill="#e41d24" d="M 64.5,97.5 C 66.5,97.5 68.5,97.5 70.5,97.5C 70.5,101.833 70.5,106.167 70.5,110.5C 68.1667,110.5 65.8333,110.5 63.5,110.5C 63.5,108.167 63.5,105.833 63.5,103.5C 64.4614,101.735 64.7947,99.7354 64.5,97.5 Z"></path></g>
<g><path style="opacity:1" fill="#b2978e" d="M 161.5,97.5 C 163.5,97.5 165.5,97.5 167.5,97.5C 167.5,99.5 167.5,101.5 167.5,103.5C 165.5,103.5 163.5,103.5 161.5,103.5C 161.5,101.5 161.5,99.5 161.5,97.5 Z"></path></g>
<g><path style="opacity:1" fill="#08254b" d="M 96.5,103.5 C 94.5,103.5 92.5,103.5 90.5,103.5C 89.6586,101.621 89.3253,99.6208 89.5,97.5C 91.8333,97.5 94.1667,97.5 96.5,97.5C 96.5,99.5 96.5,101.5 96.5,103.5 Z"></path></g>
<g><path style="opacity:1" fill="#463811" d="M 141.5,142.5 C 145.833,142.5 150.167,142.5 154.5,142.5C 150.702,143.483 146.702,143.817 142.5,143.5C 142.784,145.415 142.451,147.081 141.5,148.5C 141.5,146.5 141.5,144.5 141.5,142.5 Z"></path></g>
<g><path style="opacity:1" fill="#040308" d="M 84.5,142.5 C 88.5,142.5 92.5,142.5 96.5,142.5C 96.5,144.5 96.5,146.5 96.5,148.5C 92.5,148.5 88.5,148.5 84.5,148.5C 84.5,146.5 84.5,144.5 84.5,142.5 Z"></path></g>
<g><path style="opacity:1" fill="#e71f25" d="M 116.5,129.5 C 118.5,129.5 120.5,129.5 122.5,129.5C 122.5,131.833 122.5,134.167 122.5,136.5C 124.5,136.5 126.5,136.5 128.5,136.5C 128.5,138.5 128.5,140.5 128.5,142.5C 128.5,144.5 128.5,146.5 128.5,148.5C 126.5,148.5 124.5,148.5 122.5,148.5C 122.5,146.5 122.5,144.5 122.5,142.5C 120.5,142.5 118.5,142.5 116.5,142.5C 116.5,138.167 116.5,133.833 116.5,129.5 Z"></path></g>
<g><path style="opacity:1" fill="#ee5639" d="M 128.5,142.5 C 132.833,142.5 137.167,142.5 141.5,142.5C 141.5,144.5 141.5,146.5 141.5,148.5C 137.167,148.5 132.833,148.5 128.5,148.5C 128.5,146.5 128.5,144.5 128.5,142.5 Z"></path></g>
<g><path style="opacity:1" fill="#e5352c" d="M 71.5,129.5 C 73.1667,129.5 74.8333,129.5 76.5,129.5C 76.1818,134.032 76.5151,138.366 77.5,142.5C 79.5,142.5 81.5,142.5 83.5,142.5C 83.5,144.5 83.5,146.5 83.5,148.5C 81.2646,148.205 79.2646,148.539 77.5,149.5C 77.5,151.5 77.5,153.5 77.5,155.5C 75.1667,155.5 72.8333,155.5 70.5,155.5C 70.5,149.167 70.5,142.833 70.5,136.5C 71.4682,134.393 71.8016,132.059 71.5,129.5 Z"></path></g>
<g><path style="opacity:1" fill="#0d2755" d="M 96.5,142.5 C 100.833,142.5 105.167,142.5 109.5,142.5C 109.5,144.833 109.5,147.167 109.5,149.5C 113.833,149.5 118.167,149.5 122.5,149.5C 122.5,151.5 122.5,153.5 122.5,155.5C 116.167,155.5 109.833,155.5 103.5,155.5C 103.167,155.5 102.833,155.5 102.5,155.5C 102.5,153.5 102.5,151.5 102.5,149.5C 100.5,149.5 98.5,149.5 96.5,149.5C 96.5,149.167 96.5,148.833 96.5,148.5C 96.5,146.5 96.5,144.5 96.5,142.5 Z"></path></g>
<g><path style="opacity:1" fill="#110406" d="M 96.5,149.5 C 98.5,149.5 100.5,149.5 102.5,149.5C 102.5,151.5 102.5,153.5 102.5,155.5C 100.5,155.5 98.5,155.5 96.5,155.5C 96.5,153.5 96.5,151.5 96.5,149.5 Z"></path></g>
<g><path style="opacity:1" fill="#e8362c" d="M 90.5,149.5 C 92.5,149.5 94.5,149.5 96.5,149.5C 96.5,151.5 96.5,153.5 96.5,155.5C 98.5,155.5 100.5,155.5 102.5,155.5C 102.833,155.5 103.167,155.5 103.5,155.5C 103.5,157.5 103.5,159.5 103.5,161.5C 100.941,161.198 98.6074,161.532 96.5,162.5C 95.5489,163.919 95.2155,165.585 95.5,167.5C 93.8333,167.5 92.1667,167.5 90.5,167.5C 90.5,161.5 90.5,155.5 90.5,149.5 Z"></path></g>
<g><path style="opacity:1" fill="#811c1b" d="M 83.5,142.5 C 83.8333,142.5 84.1667,142.5 84.5,142.5C 84.5,144.5 84.5,146.5 84.5,148.5C 88.5,148.5 92.5,148.5 96.5,148.5C 96.5,148.833 96.5,149.167 96.5,149.5C 94.5,149.5 92.5,149.5 90.5,149.5C 88.5,149.5 86.5,149.5 84.5,149.5C 84.5,155.5 84.5,161.5 84.5,167.5C 86.5,167.5 88.5,167.5 90.5,167.5C 92.1667,167.5 93.8333,167.5 95.5,167.5C 95.2155,165.585 95.5489,163.919 96.5,162.5C 96.5,164.5 96.5,166.5 96.5,168.5C 92.1667,168.5 87.8333,168.5 83.5,168.5C 83.5,162.167 83.5,155.833 83.5,149.5C 81.5,149.5 79.5,149.5 77.5,149.5C 79.2646,148.539 81.2646,148.205 83.5,148.5C 83.5,146.5 83.5,144.5 83.5,142.5 Z"></path></g>
<g><path style="opacity:1" fill="#b31017" d="M 90.5,149.5 C 90.5,155.5 90.5,161.5 90.5,167.5C 88.5,167.5 86.5,167.5 84.5,167.5C 84.5,161.5 84.5,155.5 84.5,149.5C 86.5,149.5 88.5,149.5 90.5,149.5 Z"></path></g>
</svg>